# xmcd
#
# Track frame offsets:
#	150
#	10920
#	23235
#	38297
#	50464
#	62978
#	76351
#	88525
#	105598
#	118402
#	132102
#
# Disc length: 1920 seconds
#
# Revision: 1
# Processed by: cddbd v1.5.1PL0 Copyright (c) Steve Scherf et al.
# Submitted via: audiograbber 1.83.01
#
DISCID=85077e0b
DTITLE=Statler Brothers - Bed of Roses
DYEAR=1970
DGENRE=Country
TTITLE0=Bed of Roses
TTITLE1=New York City
TTITLE2=All I Have To Offer You Is Me
TTITLE3=Neighborhood Girl
TTITLE4=Fifteen Year s Ago
TTITLE5=The Junkie's Prayer
TTITLE6=We
TTITLE7=This Part of The World
TTITLE8=Tomorrow Never Comes
TTITLE9=Me and Bobby McGee
TTITLE10=The Last Goodbye
EXTD=
EXTT0=
EXTT1=
EXTT2=
EXTT3=
EXTT4=
EXTT5=
EXTT6=
EXTT7=
EXTT8=
EXTT9=
EXTT10=
PLAYORDER=
